<svg width="24" height="24" viewBox="0 0 24 24" fill="#545454" xmlns="http://www.w3.org/2000/svg">
<path d="M16.02 17.6104C14.2115 19.0142 11.9361 19.676 9.65688 19.4611C7.37768 19.2463 5.266 18.171 3.7517 16.454C2.2374 14.7371 1.4343 12.5077 1.50587 10.2195C1.57744 7.93128 2.51831 5.75637 4.13695 4.13744C5.75588 2.5188 7.93079 1.57793 10.219 1.50636C12.5072 1.43478 14.7366 2.23789 16.4536 3.75219C18.1705 5.26649 19.2458 7.37816 19.4606 9.65737C19.6755 11.9366 19.0137 14.212 17.61 16.0204L22.17 20.5804C22.318 20.7179 22.4263 20.8929 22.4833 21.0867C22.5403 21.2806 22.544 21.4863 22.494 21.682C22.4439 21.8778 22.342 22.0565 22.1989 22.1992C22.0558 22.3419 21.8769 22.4434 21.681 22.4929C21.4854 22.5431 21.2799 22.5396 21.0862 22.4828C20.8924 22.4261 20.7176 22.3182 20.58 22.1704L16.02 17.6104ZM17.25 10.5004C17.2633 9.60585 17.0986 8.71753 16.7655 7.88717C16.4324 7.0568 15.9375 6.30097 15.3096 5.66362C14.6816 5.02628 13.9333 4.52016 13.108 4.1747C12.2827 3.82924 11.3969 3.65133 10.5022 3.65133C9.60751 3.65133 8.72175 3.82924 7.89644 4.1747C7.07114 4.52016 6.32276 5.02628 5.69485 5.66362C5.06694 6.30097 4.57203 7.0568 4.23891 7.88717C3.90579 8.71753 3.74111 9.60585 3.75445 10.5004C3.78087 12.2726 4.50342 13.9633 5.766 15.2072C7.02857 16.4511 8.72981 17.1483 10.5022 17.1483C12.2746 17.1483 13.9758 16.4511 15.2384 15.2072C16.501 13.9633 17.2235 12.2726 17.25 10.5004Z" fill="#545454"/>
</svg>
