<svg width="24" height="24" viewBox="0 0 24 24" fill="none" xmlns="http://www.w3.org/2000/svg">
<path d="M0 5.14286H17.6C19.84 5.14286 20.96 5.14286 21.816 5.70343C22.5686 6.19648 23.1805 6.98321 23.564 7.95086C24 9.05143 24 10.4914 24 13.3714V15.7714C24 18.6514 24 20.0914 23.564 21.192C23.1805 22.1596 22.5686 22.9464 21.816 23.4394C20.96 24 19.84 24 17.6 24H6.4C4.16 24 3.04 24 2.184 23.4394C1.43139 22.9464 0.819488 22.1596 0.436 21.192C-1.19209e-07 20.0914 0 18.6514 0 15.7714V5.14286ZM0 5.14286C0 3.54514 -5.96046e-08 2.74629 0.202667 2.11714C0.336684 1.70088 0.533194 1.32266 0.780965 1.0041C1.02874 0.685535 1.32291 0.432879 1.64667 0.260571C2.136 -7.66345e-08 2.75733 0 4 0H7.124C8.21467 0 8.75867 -7.66345e-08 9.24933 0.260571C9.74 0.521143 10.1253 1.01829 10.896 2.00914L13.3333 5.14286H0Z" fill="#E7E7E7"/>
</svg>
