<svg width="18" height="18" viewBox="0 0 18 18" fill="none" xmlns="http://www.w3.org/2000/svg">
<path fill-rule="evenodd" clip-rule="evenodd" d="M0 0H15.5V2.5H14.5V1H1V12.5H11.6935V13.5H0V0ZM15 6.5C15.3978 6.5 15.7794 6.34196 16.0607 6.06066C16.342 5.77936 16.5 5.39782 16.5 5C16.5 4.60218 16.342 4.22064 16.0607 3.93934C15.7794 3.65804 15.3978 3.5 15 3.5C14.6022 3.5 14.2206 3.65804 13.9393 3.93934C13.658 4.22064 13.5 4.60218 13.5 5C13.5 5.39782 13.658 5.77936 13.9393 6.06066C14.2206 6.34196 14.6022 6.5 15 6.5ZM16.0155 7.505C16.665 7.505 17.179 7.797 17.5155 8.248C17.83 8.6705 17.963 9.193 17.993 9.6755C18.0227 10.1705 17.9553 10.6664 17.7945 11.1355C17.6445 11.5705 17.391 12.0205 17 12.329V17.25C17.0004 17.4384 16.9298 17.6201 16.8023 17.7589C16.6748 17.8976 16.4997 17.9833 16.312 17.9989C16.1242 18.0144 15.9374 17.9587 15.7888 17.8429C15.6402 17.727 15.5407 17.5594 15.51 17.3735L14.865 13.5H14.716L13.987 17.388C13.9524 17.5715 13.8506 17.7355 13.7014 17.8479C13.5523 17.9603 13.3666 18.013 13.1807 17.9958C12.9948 17.9785 12.8219 17.8925 12.6961 17.7546C12.5702 17.6167 12.5003 17.4367 12.5 17.25V10.1165C12.4 10.2688 12.3013 10.422 12.204 10.576L12.165 10.6375L12.155 10.6535L12.1525 10.658C12.0851 10.7662 11.9913 10.8554 11.8798 10.9173C11.7683 10.9791 11.643 11.0116 11.5155 11.0115H9.0155C8.81659 11.0115 8.62582 10.9325 8.48517 10.7918C8.34452 10.6512 8.2655 10.4604 8.2655 10.2615C8.2655 10.0626 8.34452 9.87182 8.48517 9.73117C8.62582 9.59052 8.81659 9.5115 9.0155 9.5115H11.104C11.2255 9.3235 11.3855 9.0795 11.5535 8.8345C11.7285 8.579 11.9215 8.3085 12.0935 8.0965C12.177 7.993 12.2705 7.885 12.3645 7.7965C12.4105 7.753 12.4745 7.6965 12.5525 7.6465C12.6899 7.55563 12.8508 7.50664 13.0155 7.5055L16.0155 7.505Z" fill="#E7E7E7"/>
</svg>
