<svg width="24" height="24" viewBox="0 0 24 24" fill="none" xmlns="http://www.w3.org/2000/svg">
<path d="M12 12C13.8565 12 15.637 11.3679 16.9497 10.2426C18.2625 9.11742 19 7.5913 19 6C19 4.4087 18.2625 2.88258 16.9497 1.75736C15.637 0.632141 13.8565 0 12 0C10.1435 0 8.36301 0.632141 7.05025 1.75736C5.7375 2.88258 5 4.4087 5 6C5 7.5913 5.7375 9.11742 7.05025 10.2426C8.36301 11.3679 10.1435 12 12 12ZM3.5 13.7143C2.57174 13.7143 1.6815 14.0304 1.02513 14.593C0.368749 15.1556 0 15.9186 0 16.7143V17.1429C0 19.194 1.523 20.9289 3.685 22.1083C5.859 23.2946 8.802 24 12 24C15.198 24 18.14 23.2946 20.315 22.1083C22.477 20.9289 24 19.194 24 17.1429V16.7143C24 15.9186 23.6313 15.1556 22.9749 14.593C22.3185 14.0304 21.4283 13.7143 20.5 13.7143H3.5Z" fill="#E7E7E7"/>
</svg>
