<svg width="24" height="24" viewBox="0 0 24 24" fill="none" xmlns="http://www.w3.org/2000/svg">
<path fill-rule="evenodd" clip-rule="evenodd" d="M13.9344 2.77845C14.0192 2.94323 14.0407 3.1548 14.0826 3.57795C14.1625 4.37745 14.2025 4.7772 14.3702 4.99755C14.4747 5.13436 14.6136 5.24107 14.7726 5.30684C14.9317 5.3726 15.1054 5.39506 15.276 5.37195C15.549 5.33588 15.861 5.0814 16.4831 4.57245C16.8116 4.30238 16.9764 4.16782 17.1529 4.11127C17.3776 4.03945 17.6208 4.05158 17.8373 4.1454C18.0079 4.2195 18.1591 4.36965 18.4584 4.66995L19.33 5.5416C19.6304 5.8419 19.7805 5.99205 19.8546 6.16268C19.9484 6.37918 19.9605 6.62236 19.8887 6.84713C19.8322 7.0236 19.6976 7.18837 19.4285 7.51695C18.9186 8.13998 18.6641 8.451 18.6271 8.72498C18.6043 8.8955 18.627 9.06903 18.6929 9.22794C18.7588 9.38685 18.8656 9.52549 19.0024 9.62978C19.2218 9.79748 19.6226 9.83745 20.423 9.9174C20.8452 9.95933 21.0568 9.98077 21.2225 10.0656C21.4316 10.174 21.5944 10.3545 21.6808 10.5736C21.75 10.7462 21.75 10.9587 21.75 11.3838V12.6162C21.75 13.0413 21.75 13.2538 21.6818 13.4255C21.5951 13.6453 21.4316 13.8261 21.2215 13.9344C21.0568 14.0192 20.8452 14.0407 20.4221 14.0826C19.6226 14.1625 19.2228 14.2025 19.0024 14.3702C18.8656 14.4747 18.7589 14.6136 18.6932 14.7726C18.6274 14.9317 18.6049 15.1054 18.628 15.276C18.6651 15.549 18.9196 15.861 19.4285 16.4831C19.6976 16.8116 19.8322 16.9754 19.8887 17.1529C19.9605 17.3776 19.9484 17.6208 19.8546 17.8373C19.7805 18.0079 19.6304 18.1581 19.33 18.4584L18.4584 19.3291C18.1581 19.6304 18.0079 19.7805 17.8373 19.8536C17.6208 19.9474 17.3776 19.9596 17.1529 19.8878C16.9764 19.8312 16.8116 19.6966 16.4831 19.4276C15.86 18.9186 15.549 18.6641 15.276 18.628C15.1054 18.6049 14.9317 18.6274 14.7726 18.6932C14.6136 18.7589 14.4747 18.8656 14.3702 19.0024C14.2025 19.2218 14.1625 19.6216 14.0826 20.4221C14.0407 20.8452 14.0192 21.0568 13.9344 21.2215C13.8264 21.4314 13.6459 21.5949 13.4264 21.6818C13.2539 21.75 13.0413 21.75 12.6162 21.75H11.3838C10.9587 21.75 10.7462 21.75 10.5746 21.6818C10.3547 21.5951 10.1739 21.4316 10.0656 21.2215C9.98077 21.0568 9.95933 20.8452 9.9174 20.4221C9.83745 19.6226 9.79748 19.2228 9.62978 19.0024C9.52538 18.8658 9.38669 18.7592 9.22779 18.6934C9.06888 18.6277 8.89541 18.6051 8.72498 18.628C8.451 18.6641 8.13998 18.9186 7.51695 19.4276C7.18837 19.6976 7.0236 19.8322 6.84713 19.8887C6.62236 19.9605 6.37918 19.9484 6.16268 19.8546C5.99205 19.7805 5.84092 19.6304 5.5416 19.33L4.66995 18.4584C4.36965 18.1581 4.2195 18.0079 4.1454 17.8373C4.05158 17.6208 4.03945 17.3776 4.11127 17.1529C4.16782 16.9764 4.30238 16.8116 4.57148 16.4831C5.0814 15.86 5.33588 15.549 5.37195 15.275C5.39488 15.1046 5.37233 14.9311 5.30657 14.7722C5.24082 14.6133 5.13421 14.4746 4.99755 14.3702C4.77817 14.2025 4.37745 14.1625 3.57698 14.0826C3.1548 14.0407 2.94322 14.0192 2.77747 13.9344C2.56838 13.826 2.40561 13.6455 2.31923 13.4264C2.25 13.2539 2.25 13.0413 2.25 12.6162V11.3838C2.25 10.9587 2.25 10.7462 2.31825 10.5746C2.40491 10.3547 2.56845 10.1739 2.77845 10.0656C2.94323 9.98077 3.1548 9.95933 3.57795 9.9174C4.37745 9.83745 4.77817 9.79748 4.99755 9.62978C5.13438 9.52549 5.24119 9.38685 5.30712 9.22794C5.37304 9.06903 5.39575 8.8955 5.37293 8.72498C5.33588 8.451 5.08043 8.13998 4.57148 7.51597C4.30238 7.1874 4.16782 7.0236 4.11127 6.84615C4.03945 6.62139 4.05158 6.3782 4.1454 6.1617C4.2195 5.99205 4.36965 5.84092 4.66995 5.54063L5.5416 4.66995C5.8419 4.36965 5.99205 4.21853 6.16268 4.1454C6.37918 4.05158 6.62236 4.03945 6.84713 4.11127C7.0236 4.16782 7.18837 4.30238 7.51695 4.57148C8.13998 5.08043 8.451 5.3349 8.724 5.37195C8.89483 5.39513 9.06876 5.37261 9.22805 5.30666C9.38733 5.24072 9.52629 5.13372 9.63075 4.99657C9.7965 4.7772 9.83745 4.37745 9.9174 3.57698C9.95933 3.1548 9.98077 2.94322 10.0656 2.77747C10.1738 2.56802 10.3543 2.40487 10.5736 2.31825C10.7462 2.25 10.9587 2.25 11.3838 2.25H12.6162C13.0413 2.25 13.2538 2.25 13.4255 2.31825C13.6453 2.40491 13.8261 2.56845 13.9344 2.77845ZM12 15.9C13.0343 15.9 14.0263 15.4891 14.7577 14.7577C15.4891 14.0263 15.9 13.0343 15.9 12C15.9 10.9657 15.4891 9.97368 14.7577 9.24228C14.0263 8.51089 13.0343 8.1 12 8.1C10.9657 8.1 9.97368 8.51089 9.24228 9.24228C8.51089 9.97368 8.1 10.9657 8.1 12C8.1 13.0343 8.51089 14.0263 9.24228 14.7577C9.97368 15.4891 10.9657 15.9 12 15.9Z" fill="#E7E7E7"/>
<path d="M13.5851 3.6277L13.585 3.62725C13.5634 3.40937 13.5493 3.27001 13.5315 3.16405C13.5146 3.06344 13.4993 3.02568 13.49 3.0076C13.4372 2.90529 13.3491 2.82562 13.2421 2.7834L13.2407 2.78285C13.223 2.77583 13.1849 2.76426 13.0826 2.75742C12.9754 2.75026 12.8354 2.75 12.6162 2.75H11.3838C11.1646 2.75 11.0246 2.75026 10.9173 2.75742C10.8149 2.76426 10.7761 2.77584 10.7575 2.78321L10.7573 2.78328C10.6508 2.82536 10.5631 2.90449 10.5103 3.0061C10.4794 3.06693 10.461 3.16234 10.415 3.62639L10.4149 3.62667L10.4143 3.63296C10.3754 4.02238 10.3433 4.34332 10.2983 4.5933C10.254 4.8397 10.1859 5.09121 10.0297 5.29799L10.0285 5.29953C9.87049 5.50701 9.66027 5.66888 9.4193 5.76864C9.17832 5.8684 8.9152 5.90248 8.65676 5.86741L8.65676 5.86741C8.39861 5.83237 8.1719 5.70207 7.9664 5.55927C7.76133 5.41675 7.5163 5.21658 7.22014 4.97464L7.20063 4.9587L7.20014 4.9583C7.03088 4.81968 6.92237 4.73124 6.83483 4.66886C6.75124 4.60929 6.71375 4.59358 6.69455 4.58743L6.84712 4.1113L6.69493 4.58755C6.58543 4.55256 6.46696 4.55847 6.36149 4.60418L6.35964 4.60498L6.35963 4.60497C6.34242 4.61235 6.30751 4.63088 6.23025 4.69857C6.14924 4.76954 6.05034 4.86831 5.89515 5.0235L5.89496 5.0237L5.0235 5.89418C4.6931 6.22458 4.63096 6.2996 4.60386 6.36125C4.55844 6.46654 4.55264 6.58472 4.58755 6.69396L4.58767 6.69433C4.5938 6.71357 4.60931 6.75076 4.6687 6.834C4.7311 6.92146 4.81939 7.02956 4.9583 7.19917L4.95894 7.19995L4.98409 7.23079C5.22172 7.5221 5.41886 7.76377 5.55968 7.96629C5.70266 8.17192 5.8334 8.39905 5.86841 8.65797L5.86851 8.65865C5.90303 8.91662 5.86868 9.17913 5.76895 9.41954C5.66928 9.65977 5.50787 9.86938 5.30107 10.0271M13.5851 3.6277L5.30108 13.9729C5.09346 13.8142 4.84038 13.7458 4.59369 13.7014C4.34671 13.657 4.03036 13.6254 3.6482 13.5872L3.62667 13.5851L3.62638 13.585C3.16296 13.539 3.06718 13.5206 3.00634 13.4899C2.9051 13.437 2.82629 13.3493 2.78438 13.243L2.78439 13.243L2.78328 13.2403C2.77607 13.2223 2.76441 13.1842 2.75751 13.0822C2.75027 12.9752 2.75 12.8355 2.75 12.6162V11.3838C2.75 11.1646 2.75026 11.0246 2.75742 10.9174C2.76426 10.8151 2.77583 10.777 2.78285 10.7593L2.7834 10.7579C2.82562 10.6509 2.90529 10.5628 3.0076 10.51L2.77846 10.0656L3.0073 10.5102C3.02526 10.5009 3.06288 10.4855 3.16405 10.4685C3.27001 10.4507 3.40937 10.4366 3.62725 10.415L3.6277 10.4149L3.64992 10.4127C4.03128 10.3746 4.34715 10.343 4.59386 10.2986C4.84041 10.2542 5.09346 10.1858 5.30107 10.0271M13.5851 3.6277L13.5872 3.64864C13.6254 4.0306 13.657 4.34666 13.7014 4.59354C13.7459 4.84038 13.8143 5.09274 13.9723 5.30036L13.9729 5.30102L13.5851 3.6277ZM5.30107 10.0271C5.30092 10.0272 5.30078 10.0273 5.30063 10.0274L4.99755 9.62978L5.30121 10.027C5.30116 10.027 5.30112 10.0271 5.30107 10.0271ZM16.8005 4.95871L16.7997 4.95943L16.7901 4.96726C16.4898 5.21299 16.2415 5.41615 16.0337 5.56033C15.8281 5.70297 15.6009 5.83314 15.3424 5.86752C15.3421 5.86756 15.3418 5.8676 15.3415 5.86764L15.276 5.37195L16.8005 4.95871ZM16.8005 4.95871C17.1635 4.66034 17.2424 4.60763 17.3055 4.58743M16.8005 4.95871L17.3055 4.58743M18.1048 5.0235L18.1043 5.02293C17.7746 4.69217 17.7001 4.63096 17.6383 4.6041L18.1048 5.0235ZM18.1048 5.0235L18.9765 5.89515C19.1313 6.04999 19.23 6.14905 19.3008 6.22998C19.3683 6.30713 19.3878 6.34296 19.396 6.36185L19.8546 6.16268M18.1048 5.0235L19.0416 7.20027M19.0416 7.20027L19.0417 7.20014C19.1803 7.03088 19.2688 6.92237 19.3311 6.83483C19.3907 6.75124 19.4064 6.71375 19.4126 6.69454C19.4474 6.58515 19.4415 6.46684 19.3958 6.36148L19.8546 6.16268M19.0416 7.20027L19.0289 7.21579C18.785 7.5138 18.5833 7.76018 18.4399 7.96647C18.2967 8.17245 18.1666 8.39938 18.1316 8.65797L18.1315 8.65865M19.0416 7.20027L18.1315 8.65865M19.8546 6.16268C19.9484 6.37918 19.9605 6.62236 19.8887 6.84713L19.33 5.5416C19.6304 5.8419 19.7805 5.99205 19.8546 6.16268ZM18.1315 8.65865C18.097 8.91661 18.1313 9.17913 18.2311 9.41954C18.3307 9.65983 18.4922 9.86948 18.6991 10.0272C18.9067 10.1858 19.1597 10.2542 19.4063 10.2986C19.6533 10.343 19.9696 10.3746 20.3518 10.4128L20.3733 10.4149L20.3736 10.415M18.1315 8.65865L20.3736 10.415M20.3736 10.415C20.8369 10.461 20.9328 10.4794 20.9936 10.5101C21.0949 10.563 21.1737 10.6506 21.2156 10.757L21.2167 10.7597M20.3736 10.415L21.2167 10.7597M21.2167 10.7597C21.2239 10.7777 21.2356 10.8158 21.2425 10.9178C21.2497 11.0248 21.25 11.1645 21.25 11.3838V12.6162C21.25 12.8354 21.2497 12.9754 21.2426 13.0826C21.2357 13.1849 21.2242 13.223 21.2171 13.2407L21.2166 13.242M21.2167 10.7597L21.2166 13.242M21.2166 13.242C21.1744 13.349 21.0949 13.4371 20.9927 13.4898L21.2166 13.242ZM10.5746 21.6818C10.7462 21.75 10.9587 21.75 11.3838 21.75H12.6162C13.0413 21.75 13.2539 21.75 13.4264 21.6818C13.6459 21.5949 13.8264 21.4314 13.9344 21.2215L10.5746 21.6818ZM10.5746 21.6818C10.3547 21.5951 10.1739 21.4316 10.0656 21.2215L10.5746 21.6818ZM13.4898 20.9927C13.4991 20.9747 13.5145 20.9371 13.5315 20.836C13.5493 20.73 13.5634 20.5906 13.585 20.3728L13.5851 20.3724L13.5871 20.3521C13.6253 19.9694 13.6569 19.6528 13.7014 19.4057C13.7458 19.1591 13.8143 18.9065 13.9729 18.699C13.9729 18.6989 13.9729 18.6989 13.973 18.6988L14.3702 19.0024C14.4747 18.8656 14.6136 18.7589 14.7726 18.6932L14.5817 18.2311C14.8221 18.1317 15.0845 18.0977 15.3423 18.1325L13.4898 20.9927ZM13.4898 20.9927C13.4372 21.0949 13.3493 21.1745 13.2424 21.2168C13.2237 21.2242 13.1849 21.2358 13.0827 21.2426C12.9754 21.2497 12.8354 21.25 12.6162 21.25H11.3838C11.1646 21.25 11.0246 21.2497 10.9174 21.2426C10.8151 21.2357 10.777 21.2242 10.7593 21.2171L10.758 21.2166C10.651 21.1744 10.5629 21.0949 10.5102 20.9927H13.4898ZM20.3723 13.5851L20.3728 13.585C20.5906 13.5634 20.73 13.5493 20.836 13.5315C20.9368 13.5146 20.9745 13.4992 20.9925 13.4899L20.3723 13.5851ZM20.3723 13.5851L20.3514 13.5872C19.9694 13.6254 19.6533 13.657 19.4065 13.7014C19.1596 13.7459 18.9073 13.8143 18.6996 13.9723L18.699 13.9729M20.3723 13.5851L18.699 13.9729M18.699 13.9729C18.492 14.1309 18.3306 14.341 18.2311 14.5816L18.6932 14.7726L18.699 13.9729ZM10.4149 20.3723L10.415 20.3728C10.4366 20.5906 10.4507 20.73 10.4685 20.836C10.4854 20.9368 10.5008 20.9745 10.5101 20.9925L10.4149 20.3723ZM10.4149 20.3723L10.4128 20.3514C10.3746 19.9695 10.343 19.6534 10.2986 19.4065C10.2541 19.1596 10.1857 18.9073 10.0277 18.6996L10.0271 18.6989M10.4149 20.3723L10.0271 18.6989M10.0271 18.6989C9.86916 18.4922 9.65936 18.3309 9.41896 18.2314C9.1787 18.132 8.91642 18.0979 8.65872 18.1325M10.0271 18.6989L7.19946 19.0413M7.19946 19.0413L7.20063 19.0403L7.22026 19.0243C7.51632 18.7824 7.76146 18.5822 7.96683 18.4397C8.17251 18.297 8.39971 18.1668 8.65872 18.1325M7.19946 19.0413C6.8372 19.339 6.75792 19.3922 6.69493 19.4125L7.19946 19.0413ZM8.65872 18.1325C8.65905 18.1324 8.65937 18.1324 8.6597 18.1323L8.72497 18.628L8.6583 18.1325C8.65844 18.1325 8.65858 18.1325 8.65872 18.1325ZM5.89515 18.9765L5.89573 18.9771C6.22574 19.3082 6.30009 19.3692 6.36185 19.396L6.16268 19.8546L6.36148 19.3958C6.46684 19.4415 6.58515 19.4474 6.69454 19.4126L5.89515 18.9765ZM5.89515 18.9765L5.0235 18.1048C4.86866 17.95 4.76998 17.851 4.69917 17.77C4.63167 17.6929 4.61222 17.657 4.60402 17.6382C4.55845 17.5328 4.5526 17.4144 4.58755 17.3051L4.11127 17.1529L4.58743 17.3055C4.59358 17.2863 4.60929 17.2488 4.66886 17.1652C4.73124 17.0776 4.81968 16.9691 4.9583 16.7999L4.9584 16.7997M5.89515 18.9765L4.9584 16.7997M4.9584 16.7997L4.97119 16.7841M4.9584 16.7997L4.97119 16.7841M17.3055 4.58743L17.1529 4.11127M17.3055 4.58743L17.1529 4.11127M17.1529 4.11127L17.3051 4.58755C17.4144 4.5526 17.5328 4.55845 17.6382 4.60402L17.1529 4.11127ZM4.97119 16.7841C5.21505 16.4862 5.41676 16.2397 5.56008 16.0334M4.97119 16.7841L5.56008 16.0334M5.56008 16.0334C5.70305 15.8275 5.83327 15.6002 5.86758 15.341M5.56008 16.0334L5.86758 15.341M5.86758 15.341C5.90212 15.0834 5.86797 14.8212 5.76858 14.581C5.66913 14.3407 5.50789 14.1309 5.30121 13.973L5.86758 15.341ZM12 16.4C13.167 16.4 14.2861 15.9364 15.1113 15.1113C15.9364 14.2861 16.4 13.167 16.4 12C16.4 10.833 15.9364 9.71389 15.1113 8.88873C14.2861 8.06357 13.167 7.6 12 7.6C10.833 7.6 9.71389 8.06357 8.88873 8.88873C8.06357 9.71389 7.6 10.833 7.6 12C7.6 13.167 8.06357 14.2861 8.88873 15.1113C9.71389 15.9364 10.833 16.4 12 16.4Z" stroke="#E7E7E7" stroke-opacity="0.5"/>
</svg>
