<svg width="24" height="24" viewBox="0 0 24 24" fill="none" xmlns="http://www.w3.org/2000/svg">
<path d="M23.0897 3.76157L12.4225 0.0717698C12.1494 -0.0239233 11.8535 -0.0239233 11.5803 0.0717698L0.913172 3.76157C0.658644 3.84905 0.435443 4.01413 0.272703 4.23525C0.109963 4.45638 0.0152447 4.72328 0.000911814 5.00112C-0.000303938 5.02531 -0.000303938 5.04956 0.000911814 5.07376V14.2983C0.000911814 14.6652 0.141394 15.0172 0.391453 15.2767C0.641512 15.5362 0.980664 15.6819 1.3343 15.6819C1.68794 15.6819 2.02709 15.5362 2.27715 15.2767C2.52721 15.0172 2.66769 14.6652 2.66769 14.2983V6.99361L5.30225 7.90453C4.48461 9.52861 4.24163 11.3988 4.61561 13.1896C4.98958 14.9804 5.95682 16.5784 7.349 17.7056C5.52717 18.6378 3.98533 20.0688 2.88992 21.8439C2.79128 21.9961 2.72276 22.167 2.68835 22.3469C2.65394 22.5267 2.65432 22.7119 2.68948 22.8916C2.72464 23.0713 2.79387 23.242 2.89315 23.3937C2.99242 23.5454 3.11977 23.6751 3.26778 23.7753C3.41578 23.8755 3.58151 23.9441 3.75531 23.9772C3.92911 24.0104 4.10752 24.0073 4.28017 23.9683C4.45283 23.9292 4.61628 23.8549 4.76103 23.7498C4.90578 23.6446 5.02894 23.5106 5.12335 23.3556C6.70897 20.8235 9.22352 19.3717 12.0014 19.3717C14.7793 19.3717 17.2939 20.8235 18.885 23.3556C18.9795 23.5106 19.1026 23.6446 19.2474 23.7498C19.3921 23.8549 19.5556 23.9292 19.7282 23.9683C19.9009 24.0073 20.0793 24.0104 20.2531 23.9772C20.4269 23.9441 20.5926 23.8755 20.7406 23.7753C20.8886 23.6751 21.016 23.5454 21.1152 23.3937C21.2145 23.242 21.2838 23.0713 21.3189 22.8916C21.3541 22.7119 21.3545 22.5267 21.32 22.3469C21.2856 22.167 21.2171 21.9961 21.1185 21.8439C20.022 20.0667 18.4781 18.6345 16.6538 17.7021C18.046 16.575 19.0133 14.9769 19.3872 13.1861C19.7612 11.3953 19.5182 9.52516 18.7006 7.90107L23.0897 6.38248C23.3548 6.29043 23.5854 6.1142 23.7487 5.87873C23.9121 5.64325 24 5.36045 24 5.0703C24 4.78015 23.9121 4.49734 23.7487 4.26187C23.5854 4.0264 23.3548 3.85017 23.0897 3.75811V3.76157ZM12.0014 2.83912L18.4517 5.07376L12.0014 7.30494L5.5567 5.07376L12.0014 2.83912ZM16.8905 11.5309C16.8907 12.319 16.7139 13.0962 16.3742 13.801C16.0346 14.5059 15.5414 15.1189 14.9337 15.5915C14.3261 16.0642 13.6207 16.3834 12.8735 16.524C12.1262 16.6645 11.3577 16.6225 10.6289 16.4013C9.90001 16.1801 9.23083 15.7857 8.67438 15.2494C8.11793 14.7132 7.68951 14.0498 7.42309 13.3118C7.15666 12.5739 7.05956 11.7817 7.13947 10.998C7.21938 10.2143 7.47411 9.46075 7.88347 8.797L11.5803 10.0757C11.8535 10.1711 12.1493 10.1711 12.4225 10.0757L16.1194 8.797C16.6236 9.61278 16.8913 10.5617 16.8905 11.5309Z" fill="#E7E7E7"/>
</svg>
