<svg width="20" height="20" viewBox="0 0 20 20" fill="none" xmlns="http://www.w3.org/2000/svg">
<path d="M17.6366 5.98489V3.48489C17.6366 3.21967 17.5312 2.96532 17.3437 2.77778C17.1561 2.59025 16.9018 2.48489 16.6366 2.48489H13.1366M18.3936 0.837891H1.89355C1.62834 0.837891 1.37398 0.943247 1.18645 1.13078C0.998911 1.31832 0.893555 1.57267 0.893555 1.83789V18.3379C0.893555 18.6031 0.998911 18.8575 1.18645 19.045C1.37398 19.2325 1.62834 19.3379 1.89355 19.3379H18.3936C18.6588 19.3379 18.9131 19.2325 19.1007 19.045C19.2882 18.8575 19.3936 18.6031 19.3936 18.3379V1.83789C19.3936 1.57267 19.2882 1.31832 19.1007 1.13078C18.9131 0.943247 18.6588 0.837891 18.3936 0.837891Z" stroke="#E7E7E7" stroke-linecap="round" stroke-linejoin="round"/>
</svg>
