<svg width="262" height="178" viewBox="0 0 262 178" fill="none" xmlns="http://www.w3.org/2000/svg">
<rect x="1" y="1" width="260" height="176" fill="white" stroke="#393D94" stroke-width="2" stroke-dasharray="20 20"/>
<path d="M30.5502 146.78C30.0602 146.78 29.8152 146.53 29.8152 146.03C29.8152 145.54 30.0602 145.295 30.5502 145.295C31.0302 145.295 31.2702 145.54 31.2702 146.03C31.2702 146.53 31.0302 146.78 30.5502 146.78ZM32.3502 153.785H35.0352V155H31.4952C31.0952 155 30.7552 154.965 30.4752 154.895C30.1852 154.965 29.8452 155 29.4552 155H23.9052C23.0952 155 22.4602 154.73 22.0002 154.19C21.6002 153.72 21.4002 153.105 21.4002 152.345V150.53L22.6902 149.84V152.225C22.6902 153.265 23.1752 153.785 24.1452 153.785H28.5852C27.9652 153.075 27.6552 152.29 27.6552 151.43C27.6552 150.45 27.9352 149.67 28.4952 149.09C28.9952 148.56 29.6552 148.295 30.4752 148.295C31.4052 148.295 32.1302 148.635 32.6502 149.315C33.0702 149.875 33.2802 150.58 33.2802 151.43C33.2802 152.29 32.9702 153.075 32.3502 153.785ZM30.4752 153.65C30.9352 153.49 31.3102 153.195 31.6002 152.765C31.9002 152.335 32.0502 151.87 32.0502 151.37C32.0502 150.8 31.9052 150.345 31.6152 150.005C31.3352 149.665 30.9552 149.495 30.4752 149.495C29.9952 149.495 29.6102 149.665 29.3202 150.005C29.0402 150.335 28.9002 150.79 28.9002 151.37C28.9002 151.87 29.0452 152.335 29.3352 152.765C29.6352 153.195 30.0152 153.49 30.4752 153.65ZM39.3965 153.785H40.3865V155H39.2465C38.3865 155 37.7215 154.725 37.2515 154.175C36.7515 154.725 36.0615 155 35.1815 155H34.2815V153.785H35.0765C36.1165 153.785 36.6365 153.24 36.6365 152.15V146.015L37.9415 145.325V152.165C37.9415 152.745 38.0515 153.16 38.2715 153.41C38.5015 153.66 38.8765 153.785 39.3965 153.785ZM42.0916 150.935C42.0916 150.065 42.3516 149.39 42.8716 148.91C43.3316 148.5 43.9316 148.295 44.6716 148.295C45.6216 148.295 46.3516 148.645 46.8616 149.345C47.3016 149.935 47.5216 150.705 47.5216 151.655C47.5216 152.735 47.2416 153.58 46.6816 154.19C46.1916 154.73 45.5516 155 44.7616 155C43.8616 155 43.1766 154.75 42.7066 154.25C42.2266 154.75 41.5816 155 40.7716 155H39.6316V153.785H40.6216C41.6016 153.785 42.0916 153.285 42.0916 152.285V150.935ZM43.3816 152.39C43.3816 153.32 43.8366 153.785 44.7466 153.785C45.2166 153.785 45.5816 153.595 45.8416 153.215C46.1116 152.835 46.2466 152.305 46.2466 151.625C46.2466 150.955 46.1066 150.435 45.8266 150.065C45.5466 149.685 45.1616 149.495 44.6716 149.495C43.8116 149.495 43.3816 149.995 43.3816 150.995V152.39ZM55.107 146.525C54.617 146.525 54.372 146.275 54.372 145.775C54.372 145.285 54.617 145.04 55.107 145.04C55.587 145.04 55.827 145.285 55.827 145.775C55.827 146.275 55.587 146.525 55.107 146.525ZM57.012 146.525C56.522 146.525 56.277 146.275 56.277 145.775C56.277 145.285 56.522 145.04 57.012 145.04C57.492 145.04 57.732 145.285 57.732 145.775C57.732 146.275 57.492 146.525 57.012 146.525ZM59.802 153.785H60.792V155H59.652C58.622 155 57.882 154.62 57.432 153.86C56.952 154.32 56.357 154.55 55.647 154.55C54.767 154.55 54.067 154.22 53.547 153.56C53.117 153 52.902 152.315 52.902 151.505C52.902 150.535 53.197 149.755 53.787 149.165C54.287 148.655 54.897 148.4 55.617 148.4C56.167 148.4 56.642 148.54 57.042 148.82V148.175L58.347 147.485V152.285C58.347 153.285 58.832 153.785 59.802 153.785ZM57.042 150.215C56.672 149.805 56.217 149.6 55.677 149.6C55.237 149.6 54.877 149.78 54.597 150.14C54.317 150.49 54.177 150.95 54.177 151.52C54.177 152.1 54.317 152.565 54.597 152.915C54.877 153.265 55.242 153.44 55.692 153.44C56.252 153.44 56.712 153.21 57.072 152.75C57.052 152.57 57.042 152.43 57.042 152.33V150.215ZM64.9375 146.765C64.4475 146.765 64.2025 146.515 64.2025 146.015C64.2025 145.525 64.4475 145.28 64.9375 145.28C65.4175 145.28 65.6575 145.525 65.6575 146.015C65.6575 146.515 65.4175 146.765 64.9375 146.765ZM60.0475 155V153.785H62.7475C62.2875 153.275 62.0575 152.565 62.0575 151.655C62.0575 150.565 62.3425 149.715 62.9125 149.105C63.4125 148.565 64.0775 148.295 64.9075 148.295C65.7575 148.295 66.4175 148.56 66.8875 149.09C67.2875 149.56 67.4875 150.175 67.4875 150.935V152.36C67.4775 153.19 67.2325 153.845 66.7525 154.325C66.2825 154.775 65.6575 155 64.8775 155H60.0475ZM66.1975 150.995C66.1975 149.995 65.7675 149.495 64.9075 149.495C64.4175 149.495 64.0325 149.685 63.7525 150.065C63.4725 150.435 63.3325 150.955 63.3325 151.625C63.3325 152.285 63.4675 152.81 63.7375 153.2C64.0075 153.59 64.3675 153.785 64.8175 153.785C65.7375 153.785 66.1975 153.305 66.1975 152.345V150.995ZM72.7959 155C71.9259 155 71.2559 154.72 70.7859 154.16C70.3859 153.68 70.1859 153.07 70.1859 152.33V146.015L71.4759 145.325V152.285C71.4759 153.285 71.9659 153.785 72.9459 153.785H73.9359V155H72.7959ZM83.7395 146.675C83.2495 146.675 83.0045 146.425 83.0045 145.925C83.0045 145.435 83.2495 145.19 83.7395 145.19C84.2195 145.19 84.4595 145.435 84.4595 145.925C84.4595 146.425 84.2195 146.675 83.7395 146.675ZM77.9045 153.74C78.3045 152.23 78.9645 150.97 79.8845 149.96C80.9145 148.85 82.1145 148.295 83.4845 148.295C84.6245 148.295 85.5345 148.69 86.2145 149.48C86.7845 150.15 87.0695 150.975 87.0695 151.955V152.345C87.0695 153.215 86.8045 153.89 86.2745 154.37C85.8145 154.79 85.2095 155 84.4595 155H78.2495C77.4195 155 76.7645 154.735 76.2845 154.205C75.8045 154.735 75.1495 155 74.3195 155H73.1795V153.785H74.1695C75.1495 153.785 75.6395 153.285 75.6395 152.285V150.185L76.9295 149.495V152.285C76.9295 153.125 77.2545 153.61 77.9045 153.74ZM85.7795 152.225V151.955C85.7795 151.175 85.5395 150.555 85.0595 150.095C84.6395 149.695 84.1195 149.495 83.4995 149.495C82.4395 149.495 81.4845 149.985 80.6345 150.965C79.9845 151.715 79.4845 152.655 79.1345 153.785H84.3845C85.3145 153.785 85.7795 153.265 85.7795 152.225ZM95.1818 146.015L96.4868 145.325V152.165C96.4868 153.055 96.2218 153.76 95.6918 154.28C95.1918 154.76 94.5368 155 93.7268 155H88.5668L89.1968 153.785H91.3868V147.965L92.6768 147.275V153.785H93.6218C94.6618 153.785 95.1818 153.24 95.1818 152.15V146.015ZM115.208 153.785H116.198V155H115.058C114.258 155 113.633 154.765 113.183 154.295C112.773 154.765 112.193 155 111.443 155H101.933L102.578 153.785H104.588L104.633 153.62V146.015L105.923 145.325V150.815C107.063 149.135 108.478 148.295 110.168 148.295C111.298 148.295 112.203 148.69 112.883 149.48C113.463 150.15 113.753 150.975 113.753 151.955V152.315C113.753 153.295 114.238 153.785 115.208 153.785ZM112.448 152.375V151.955C112.448 151.175 112.208 150.555 111.728 150.095C111.318 149.695 110.803 149.495 110.183 149.495C109.153 149.495 108.223 149.96 107.393 150.89C106.773 151.59 106.283 152.465 105.923 153.515V153.785H111.338C111.768 153.785 112.058 153.685 112.208 153.485C112.368 153.285 112.448 152.915 112.448 152.375ZM121.109 146.675C120.619 146.675 120.374 146.425 120.374 145.925C120.374 145.435 120.619 145.19 121.109 145.19C121.589 145.19 121.829 145.435 121.829 145.925C121.829 146.425 121.589 146.675 121.109 146.675ZM122.864 153.785H126.824V155H122.744C122.204 155 121.669 154.895 121.139 154.685C120.609 154.895 120.069 155 119.519 155H115.454V153.785H119.414H119.624C118.904 153.195 118.164 152.33 117.404 151.19V150.53C117.884 149.84 118.454 149.295 119.114 148.895C119.784 148.495 120.454 148.295 121.124 148.295C121.794 148.295 122.464 148.5 123.134 148.91C123.804 149.31 124.384 149.86 124.874 150.56V151.19C124.114 152.33 123.369 153.195 122.639 153.785H122.864ZM118.604 150.875C119.524 152.135 120.369 152.965 121.139 153.365C121.909 152.955 122.754 152.12 123.674 150.86C122.924 149.95 122.074 149.49 121.124 149.48C120.174 149.48 119.334 149.945 118.604 150.875ZM136.638 146.675C136.148 146.675 135.903 146.425 135.903 145.925C135.903 145.435 136.148 145.19 136.638 145.19C137.118 145.19 137.358 145.435 137.358 145.925C137.358 146.425 137.118 146.675 136.638 146.675ZM141.438 153.785H142.428V155H141.288C140.448 155 139.793 154.74 139.323 154.22C138.853 154.74 138.198 155 137.358 155H131.148C130.318 155 129.663 154.735 129.183 154.205C128.703 154.735 128.048 155 127.218 155H126.078V153.785H127.068C128.048 153.785 128.538 153.285 128.538 152.285V150.185L129.828 149.495V152.285C129.828 153.125 130.153 153.61 130.803 153.74C131.203 152.23 131.863 150.97 132.783 149.96C133.813 148.85 135.013 148.295 136.383 148.295C137.523 148.295 138.433 148.69 139.113 149.48C139.683 150.15 139.968 150.975 139.968 151.955V152.315C139.968 153.295 140.458 153.785 141.438 153.785ZM137.283 153.785C138.213 153.785 138.678 153.265 138.678 152.225V151.955C138.678 151.175 138.438 150.555 137.958 150.095C137.538 149.695 137.018 149.495 136.398 149.495C135.338 149.495 134.383 149.985 133.533 150.965C132.883 151.715 132.383 152.655 132.033 153.785H137.283ZM141.682 155V153.785H142.477C143.517 153.785 144.037 153.24 144.037 152.15V146.015L145.342 145.325V152.165C145.342 153.055 145.077 153.76 144.547 154.28C144.047 154.76 143.392 155 142.582 155H141.682ZM150.798 155C149.928 155 149.258 154.72 148.788 154.16C148.388 153.68 148.188 153.07 148.188 152.33V146.015L149.478 145.325V152.285C149.478 153.285 149.968 153.785 150.948 153.785H151.938V155H150.798ZM151.181 155V153.785H152.171C153.151 153.785 153.641 153.285 153.641 152.285V149.18L154.931 148.49V152.33C154.931 153.18 154.676 153.85 154.166 154.34C153.696 154.78 153.081 155 152.321 155H151.181ZM153.596 157.985C153.106 157.985 152.861 157.735 152.861 157.235C152.861 156.745 153.106 156.5 153.596 156.5C154.076 156.5 154.316 156.745 154.316 157.235C154.316 157.735 154.076 157.985 153.596 157.985ZM169.166 153.785H170.171V155H169.031C168.221 155 167.576 154.75 167.096 154.25C166.626 154.73 165.961 154.98 165.101 155H163.136C162.156 155 161.666 155.5 161.666 156.5V159.035L160.376 159.725V156.455C160.376 155.625 160.616 154.97 161.096 154.49C161.526 154.05 162.096 153.815 162.806 153.785C162.446 153.205 162.266 152.495 162.266 151.655C162.266 150.565 162.551 149.715 163.121 149.105C163.631 148.565 164.301 148.295 165.131 148.295C165.981 148.295 166.636 148.56 167.096 149.09C167.506 149.56 167.711 150.175 167.711 150.935V152.285C167.711 153.285 168.196 153.785 169.166 153.785ZM166.421 152.39V150.995C166.421 149.995 165.991 149.495 165.131 149.495C164.631 149.495 164.241 149.685 163.961 150.065C163.691 150.435 163.556 150.955 163.556 151.625C163.556 152.305 163.686 152.835 163.946 153.215C164.206 153.595 164.571 153.785 165.041 153.785C165.961 153.785 166.421 153.32 166.421 152.39ZM173.329 146.78C172.839 146.78 172.594 146.53 172.594 146.03C172.594 145.54 172.839 145.295 173.329 145.295C173.809 145.295 174.049 145.54 174.049 146.03C174.049 146.53 173.809 146.78 173.329 146.78ZM175.234 146.78C174.744 146.78 174.499 146.53 174.499 146.03C174.499 145.54 174.744 145.295 175.234 145.295C175.714 145.295 175.954 145.54 175.954 146.03C175.954 146.53 175.714 146.78 175.234 146.78ZM169.414 155V153.785H172.114C171.654 153.275 171.424 152.565 171.424 151.655C171.424 150.565 171.709 149.715 172.279 149.105C172.779 148.565 173.444 148.295 174.274 148.295C175.124 148.295 175.784 148.56 176.254 149.09C176.654 149.56 176.854 150.175 176.854 150.935V152.36C176.844 153.19 176.599 153.845 176.119 154.325C175.649 154.775 175.024 155 174.244 155H169.414ZM175.564 150.995C175.564 149.995 175.134 149.495 174.274 149.495C173.784 149.495 173.399 149.685 173.119 150.065C172.839 150.435 172.699 150.955 172.699 151.625C172.699 152.285 172.834 152.81 173.104 153.2C173.374 153.59 173.734 153.785 174.184 153.785C175.104 153.785 175.564 153.305 175.564 152.345V150.995ZM186.894 154.52C186.514 154.67 186.049 154.745 185.499 154.745C184.609 154.745 183.909 154.41 183.399 153.74C182.969 153.17 182.754 152.455 182.754 151.595C182.754 150.535 183.039 149.705 183.609 149.105C184.119 148.565 184.789 148.295 185.619 148.295C186.469 148.295 187.124 148.56 187.584 149.09C187.994 149.56 188.199 150.175 188.199 150.935V154.205C188.199 155.335 187.904 156.23 187.314 156.89C186.754 157.51 186.009 157.82 185.079 157.82C184.459 157.82 183.874 157.675 183.324 157.385V156.245C183.854 156.525 184.379 156.665 184.899 156.665C185.489 156.665 185.959 156.475 186.309 156.095C186.659 155.725 186.854 155.2 186.894 154.52ZM186.894 150.995C186.894 149.995 186.469 149.495 185.619 149.495C185.119 149.495 184.724 149.68 184.434 150.05C184.154 150.42 184.014 150.925 184.014 151.565C184.014 152.195 184.149 152.7 184.419 153.08C184.699 153.45 185.074 153.635 185.544 153.635C186.204 153.635 186.654 153.45 186.894 153.08V150.995ZM190.898 155V146.015L192.188 145.325V155H190.898ZM210.623 153.785H211.313V155H210.473C209.633 155 208.978 154.74 208.508 154.22C208.038 154.74 207.383 155 206.543 155H201.188C200.378 155 199.743 154.73 199.283 154.19C198.883 153.72 198.683 153.105 198.683 152.345V150.53L199.973 149.84V152.225C199.973 153.265 200.458 153.785 201.428 153.785H206.408C207.378 153.785 207.863 153.265 207.863 152.225V149.18L209.153 148.49V152.285C209.153 153.285 209.643 153.785 210.623 153.785ZM203.378 156.5C203.858 156.5 204.098 156.745 204.098 157.235C204.098 157.735 203.858 157.985 203.378 157.985C202.888 157.985 202.643 157.735 202.643 157.235C202.643 156.745 202.888 156.5 203.378 156.5ZM220.348 153.785H221.323V155H220.333C219.523 155 218.873 154.91 218.383 154.73C217.893 154.54 217.438 154.21 217.018 153.74C215.758 154.58 214.288 155 212.608 155H210.568V153.785H212.623C214.653 153.785 216.258 153.115 217.438 151.775C216.608 150.245 215.598 149.48 214.408 149.48C213.598 149.48 212.763 149.91 211.903 150.77V149.57C212.743 148.72 213.633 148.295 214.573 148.295C215.343 148.295 216.088 148.575 216.808 149.135C217.528 149.685 218.163 150.475 218.713 151.505V152.165C218.403 152.555 218.108 152.87 217.828 153.11C218.368 153.56 219.208 153.785 220.348 153.785ZM220.577 155V153.785H221.927C222.897 153.785 223.382 153.285 223.382 152.285V150.185L224.672 149.495V152.285C224.672 153.285 225.162 153.785 226.142 153.785H226.832C227.812 153.785 228.302 153.285 228.302 152.285V149.675L229.592 149V152.285C229.592 153.285 230.077 153.785 231.047 153.785H231.752C232.732 153.785 233.222 153.285 233.222 152.285V149.18L234.512 148.49V152.33C234.512 153.18 234.257 153.845 233.747 154.325C233.297 154.765 232.697 154.99 231.947 155H230.912C230.032 155 229.377 154.705 228.947 154.115C228.517 154.695 227.877 154.99 227.027 155H225.992C225.132 155 224.477 154.705 224.027 154.115C223.597 154.705 222.942 155 222.062 155H220.577ZM237.366 155V146.015L238.656 145.325V155H237.366Z" fill="black"/>
<path d="M166.23 75.4957V74.5813C166.032 66.84 162.735 59.4902 157.06 54.1363C151.384 48.7824 143.79 45.8594 135.935 46.0052C130.086 45.9582 124.347 47.5784 119.41 50.6709C114.472 53.7634 110.547 58.1965 108.105 63.4366C101.231 64.1925 94.8776 67.4092 90.25 72.4764C85.6224 77.5436 83.0426 84.1089 83 90.9268C83.0076 94.5393 83.7374 98.1149 85.1478 101.449C86.5582 104.783 88.6214 107.811 91.2195 110.359C93.8176 112.906 96.8997 114.924 100.289 116.297C103.679 117.67 107.31 118.371 110.975 118.36H121.846V112.645H110.975C105.372 112.346 100.092 109.964 96.1993 105.98C92.3068 101.995 90.0914 96.7047 89.9994 91.174C89.9075 85.6433 91.946 80.2838 95.704 76.176C99.462 72.0681 104.66 69.5172 110.25 69.0375H112.193L112.86 67.2372C114.657 62.634 117.846 58.6858 121.993 55.9261C126.141 53.1665 131.048 51.7284 136.051 51.8062C142.368 51.6598 148.488 53.9807 153.077 58.2629C157.665 62.5451 160.351 68.4415 160.548 74.667C160.588 75.4285 160.588 76.1916 160.548 76.9531L160.316 79.0106L162.2 79.8679C165.845 81.4863 168.812 84.2928 170.604 87.815C172.396 91.3373 172.902 95.3603 172.038 99.2074C171.174 103.054 168.992 106.491 165.859 108.938C162.726 111.385 158.834 112.694 154.837 112.645H139.24V118.36H154.837C159.993 118.396 165.014 116.738 169.107 113.648C173.2 110.557 176.131 106.21 177.438 101.294C178.744 96.3772 178.352 91.1718 176.322 86.4998C174.293 81.8279 170.741 77.9559 166.23 75.4957Z" fill="#E6EAEE"/>
<path d="M143.311 101.251C143.894 101.26 144.467 101.097 144.956 100.783C145.445 100.469 145.827 100.017 146.054 99.4875C146.281 98.9576 146.341 98.3731 146.228 97.809C146.114 97.245 145.832 96.7273 145.417 96.3225L130.787 81.9121L116.157 96.3225C115.677 96.8738 115.427 97.583 115.455 98.3084C115.484 99.0337 115.789 99.7218 116.31 100.235C116.831 100.748 117.53 101.049 118.266 101.077C119.003 101.105 119.723 100.858 120.282 100.386L127.861 93.0369V128.342C127.861 129.107 128.169 129.84 128.718 130.38C129.267 130.921 130.011 131.224 130.787 131.224C131.563 131.224 132.307 130.921 132.856 130.38C133.405 129.84 133.713 129.107 133.713 128.342V93.0369L141.233 100.444C141.79 100.973 142.537 101.263 143.311 101.251Z" fill="#E6EAEE"/>
</svg>
